<svg xmlns="http://www.w3.org/2000/svg" xmlns:xlink="http://www.w3.org/1999/xlink" contentStyleType="text/css" height="1396px" preserveAspectRatio="none" style="width:1559px;height:1396px;background:#FFFFFF;" version="1.1" viewBox="0 0 1559 1396" width="1559px" zoomAndPan="magnify"><defs/><g><rect fill="none" height="1102.2344" style="stroke:#000000;stroke-width:1.5;" width="1542.5352" x="10" y="194.4941"/><line style="stroke:#181818;stroke-width:0.5;stroke-dasharray:5.0,5.0;" x1="37" x2="37" y1="83.6211" y2="1313.7285"/><line style="stroke:#181818;stroke-width:0.5;stroke-dasharray:5.0,5.0;" x1="226.4736" x2="226.4736" y1="83.6211" y2="1313.7285"/><line style="stroke:#181818;stroke-width:0.5;stroke-dasharray:5.0,5.0;" x1="360.9629" x2="360.9629" y1="83.6211" y2="1313.7285"/><line style="stroke:#181818;stroke-width:0.5;stroke-dasharray:5.0,5.0;" x1="493.3564" x2="493.3564" y1="83.6211" y2="1313.7285"/><line style="stroke:#181818;stroke-width:0.5;stroke-dasharray:5.0,5.0;" x1="698.7319" x2="698.7319" y1="83.6211" y2="1313.7285"/><line style="stroke:#181818;stroke-width:0.5;stroke-dasharray:5.0,5.0;" x1="906.8047" x2="906.8047" y1="83.6211" y2="1313.7285"/><line style="stroke:#181818;stroke-width:0.5;stroke-dasharray:5.0,5.0;" x1="1137.4814" x2="1137.4814" y1="83.6211" y2="1313.7285"/><line style="stroke:#181818;stroke-width:0.5;stroke-dasharray:5.0,5.0;" x1="1284.0947" x2="1284.0947" y1="83.6211" y2="1313.7285"/><line style="stroke:#181818;stroke-width:0.5;stroke-dasharray:5.0,5.0;" x1="1421.8389" x2="1421.8389" y1="83.6211" y2="1313.7285"/><line style="stroke:#181818;stroke-width:0.5;stroke-dasharray:5.0,5.0;" x1="1514.3145" x2="1514.3145" y1="83.6211" y2="1313.7285"/><text fill="#000000" font-family="sans-serif" font-size="14" lengthAdjust="spacing" textLength="29.5586" x="20" y="80.1074">User</text><ellipse cx="37.7793" cy="13.5" fill="#E2E2F0" rx="8" ry="8" style="stroke:#181818;stroke-width:0.5;"/><path d="M37.7793,21.5 L37.7793,48.5 M24.7793,29.5 L50.7793,29.5 M37.7793,48.5 L24.7793,63.5 M37.7793,48.5 L50.7793,63.5 " fill="none" style="stroke:#181818;stroke-width:0.5;"/><text fill="#000000" font-family="sans-serif" font-size="14" lengthAdjust="spacing" textLength="29.5586" x="20" y="1327.8359">User</text><ellipse cx="37.7793" cy="1339.8496" fill="#E2E2F0" rx="8" ry="8" style="stroke:#181818;stroke-width:0.5;"/><path d="M37.7793,1347.8496 L37.7793,1374.8496 M24.7793,1355.8496 L50.7793,1355.8496 M37.7793,1374.8496 L24.7793,1389.8496 M37.7793,1374.8496 L50.7793,1389.8496 " fill="none" style="stroke:#181818;stroke-width:0.5;"/><rect fill="#E2E2F0" height="32.6211" rx="2.5" ry="2.5" style="stroke:#181818;stroke-width:0.5;" width="103.4893" x="175.4736" y="50"/><text fill="#000000" font-family="sans-serif" font-size="14" lengthAdjust="spacing" textLength="89.4893" x="182.4736" y="72.1074">AuthController</text><rect fill="#E2E2F0" height="32.6211" rx="2.5" ry="2.5" style="stroke:#181818;stroke-width:0.5;" width="103.4893" x="175.4736" y="1312.7285"/><text fill="#000000" font-family="sans-serif" font-size="14" lengthAdjust="spacing" textLength="89.4893" x="182.4736" y="1334.8359">AuthController</text><rect fill="#E2E2F0" height="32.6211" rx="2.5" ry="2.5" style="stroke:#181818;stroke-width:0.5;" width="145.5098" x="288.9629" y="50"/><text fill="#000000" font-family="sans-serif" font-size="14" lengthAdjust="spacing" textLength="131.5098" x="295.9629" y="72.1074">AuthControllerAdvice</text><rect fill="#E2E2F0" height="32.6211" rx="2.5" ry="2.5" style="stroke:#181818;stroke-width:0.5;" width="145.5098" x="288.9629" y="1312.7285"/><text fill="#000000" font-family="sans-serif" font-size="14" lengthAdjust="spacing" textLength="131.5098" x="295.9629" y="1334.8359">AuthControllerAdvice</text><rect fill="#E2E2F0" height="32.6211" rx="2.5" ry="2.5" style="stroke:#181818;stroke-width:0.5;" width="89.4824" x="449.3564" y="50"/><text fill="#000000" font-family="sans-serif" font-size="14" lengthAdjust="spacing" textLength="75.4824" x="456.3564" y="72.1074">AuthService</text><rect fill="#E2E2F0" height="32.6211" rx="2.5" ry="2.5" style="stroke:#181818;stroke-width:0.5;" width="89.4824" x="449.3564" y="1312.7285"/><text fill="#000000" font-family="sans-serif" font-size="14" lengthAdjust="spacing" textLength="75.4824" x="456.3564" y="1334.8359">AuthService</text><rect fill="#E2E2F0" height="32.6211" rx="2.5" ry="2.5" style="stroke:#181818;stroke-width:0.5;" width="107.3857" x="645.7319" y="50"/><text fill="#000000" font-family="sans-serif" font-size="14" lengthAdjust="spacing" textLength="93.3857" x="652.7319" y="72.1074">SignUpMapper</text><rect fill="#E2E2F0" height="32.6211" rx="2.5" ry="2.5" style="stroke:#181818;stroke-width:0.5;" width="107.3857" x="645.7319" y="1312.7285"/><text fill="#000000" font-family="sans-serif" font-size="14" lengthAdjust="spacing" textLength="93.3857" x="652.7319" y="1334.8359">SignUpMapper</text><rect fill="#E2E2F0" height="32.6211" rx="2.5" ry="2.5" style="stroke:#181818;stroke-width:0.5;" width="132.2617" x="840.8047" y="50"/><text fill="#000000" font-family="sans-serif" font-size="14" lengthAdjust="spacing" textLength="118.2617" x="847.8047" y="72.1074">UserDomainObject</text><rect fill="#E2E2F0" height="32.6211" rx="2.5" ry="2.5" style="stroke:#181818;stroke-width:0.5;" width="132.2617" x="840.8047" y="1312.7285"/><text fill="#000000" font-family="sans-serif" font-size="14" lengthAdjust="spacing" textLength="118.2617" x="847.8047" y="1334.8359">UserDomainObject</text><rect fill="#E2E2F0" height="32.6211" rx="2.5" ry="2.5" style="stroke:#181818;stroke-width:0.5;" width="127.6133" x="1074.4814" y="50"/><text fill="#000000" font-family="sans-serif" font-size="14" lengthAdjust="spacing" textLength="113.6133" x="1081.4814" y="72.1074">PasswordEncoder</text><rect fill="#E2E2F0" height="32.6211" rx="2.5" ry="2.5" style="stroke:#181818;stroke-width:0.5;" width="127.6133" x="1074.4814" y="1312.7285"/><text fill="#000000" font-family="sans-serif" font-size="14" lengthAdjust="spacing" textLength="113.6133" x="1081.4814" y="1334.8359">PasswordEncoder</text><rect fill="#E2E2F0" height="32.6211" rx="2.5" ry="2.5" style="stroke:#181818;stroke-width:0.5;" width="144.7441" x="1212.0947" y="50"/><text fill="#000000" font-family="sans-serif" font-size="14" lengthAdjust="spacing" textLength="130.7441" x="1219.0947" y="72.1074">SignUpResponseDto</text><rect fill="#E2E2F0" height="32.6211" rx="2.5" ry="2.5" style="stroke:#181818;stroke-width:0.5;" width="144.7441" x="1212.0947" y="1312.7285"/><text fill="#000000" font-family="sans-serif" font-size="14" lengthAdjust="spacing" textLength="130.7441" x="1219.0947" y="1334.8359">SignUpResponseDto</text><rect fill="#E2E2F0" height="32.6211" rx="2.5" ry="2.5" style="stroke:#181818;stroke-width:0.5;" width="110.4756" x="1366.8389" y="50"/><text fill="#000000" font-family="sans-serif" font-size="14" lengthAdjust="spacing" textLength="96.4756" x="1373.8389" y="72.1074">UserRepository</text><rect fill="#E2E2F0" height="32.6211" rx="2.5" ry="2.5" style="stroke:#181818;stroke-width:0.5;" width="110.4756" x="1366.8389" y="1312.7285"/><text fill="#000000" font-family="sans-serif" font-size="14" lengthAdjust="spacing" textLength="96.4756" x="1373.8389" y="1334.8359">UserRepository</text><rect fill="#E2E2F0" height="32.6211" rx="2.5" ry="2.5" style="stroke:#181818;stroke-width:0.5;" width="55.2207" x="1487.3145" y="50"/><text fill="#000000" font-family="sans-serif" font-size="14" lengthAdjust="spacing" textLength="41.2207" x="1494.3145" y="72.1074">JwtUtil</text><rect fill="#E2E2F0" height="32.6211" rx="2.5" ry="2.5" style="stroke:#181818;stroke-width:0.5;" width="55.2207" x="1487.3145" y="1312.7285"/><text fill="#000000" font-family="sans-serif" font-size="14" lengthAdjust="spacing" textLength="41.2207" x="1494.3145" y="1334.8359">JwtUtil</text><polygon fill="#181818" points="215.2183,112.9121,225.2183,116.9121,215.2183,120.9121,219.2183,116.9121" style="stroke:#181818;stroke-width:1.0;"/><line style="stroke:#181818;stroke-width:1.0;" x1="37.7793" x2="221.2183" y1="116.9121" y2="116.9121"/><text fill="#000000" font-family="sans-serif" font-size="13" font-weight="bold" lengthAdjust="spacing" textLength="44.0527" x="44.7793" y="111.6494">signUp</text><text fill="#000000" font-family="sans-serif" font-size="13" lengthAdjust="spacing" textLength="117.7744" x="92.4438" y="111.6494">(signUpRequestDto)</text><polygon fill="#181818" points="482.0977,144.2031,492.0977,148.2031,482.0977,152.2031,486.0977,148.2031" style="stroke:#181818;stroke-width:1.0;"/><line style="stroke:#181818;stroke-width:1.0;" x1="227.2183" x2="488.0977" y1="148.2031" y2="148.2031"/><text fill="#000000" font-family="sans-serif" font-size="13" font-weight="bold" lengthAdjust="spacing" textLength="44.0527" x="234.2183" y="142.9404">signUp</text><text fill="#000000" font-family="sans-serif" font-size="13" lengthAdjust="spacing" textLength="117.7744" x="281.8828" y="142.9404">(signUpRequestDto)</text><polygon fill="#181818" points="1410.0767,175.4941,1420.0767,179.4941,1410.0767,183.4941,1414.0767,179.4941" style="stroke:#181818;stroke-width:1.0;"/><line style="stroke:#181818;stroke-width:1.0;" x1="494.0977" x2="1416.0767" y1="179.4941" y2="179.4941"/><text fill="#000000" font-family="sans-serif" font-size="13" font-weight="bold" lengthAdjust="spacing" textLength="36.8608" x="501.0977" y="174.2314">exists</text><text fill="#000000" font-family="sans-serif" font-size="13" lengthAdjust="spacing" textLength="39.7236" x="541.5703" y="174.2314">(email)</text><path d="M10,194.4941 L70.1709,194.4941 L70.1709,203.7852 L60.1709,213.7852 L10,213.7852 L10,194.4941 " fill="#EEEEEE" style="stroke:#000000;stroke-width:1.5;"/><rect fill="none" height="1102.2344" style="stroke:#000000;stroke-width:1.5;" width="1542.5352" x="10" y="194.4941"/><text fill="#000000" font-family="sans-serif" font-size="13" font-weight="bold" lengthAdjust="spacing" textLength="15.1709" x="25" y="209.5225">alt</text><text fill="#000000" font-family="sans-serif" font-size="11" font-weight="bold" lengthAdjust="spacing" textLength="66.0322" x="85.1709" y="208.3643">[User exists]</text><polygon fill="#181818" points="505.0977,233.0762,495.0977,237.0762,505.0977,241.0762,501.0977,237.0762" style="stroke:#181818;stroke-width:1.0;"/><line style="stroke:#181818;stroke-width:1.0;stroke-dasharray:2.0,2.0;" x1="499.0977" x2="1421.0767" y1="237.0762" y2="237.0762"/><text fill="#000000" font-family="sans-serif" font-size="13" lengthAdjust="spacing" textLength="108.3799" x="511.0977" y="231.8135">user already exists</text><polygon fill="#181818" points="372.7178,264.3672,362.7178,268.3672,372.7178,272.3672,368.7178,268.3672" style="stroke:#181818;stroke-width:1.0;"/><line style="stroke:#181818;stroke-width:1.0;stroke-dasharray:2.0,2.0;" x1="366.7178" x2="493.0977" y1="268.3672" y2="268.3672"/><text fill="#000000" font-family="sans-serif" font-size="13" lengthAdjust="spacing" textLength="108.3799" x="378.7178" y="263.1045">user already exists</text><polygon fill="#181818" points="48.7793,295.6582,38.7793,299.6582,48.7793,303.6582,44.7793,299.6582" style="stroke:#181818;stroke-width:1.0;"/><line style="stroke:#181818;stroke-width:1.0;stroke-dasharray:2.0,2.0;" x1="42.7793" x2="360.7178" y1="299.6582" y2="299.6582"/><text fill="#000000" font-family="sans-serif" font-size="13" lengthAdjust="spacing" textLength="65.019" x="54.7793" y="294.3955">return error</text><line style="stroke:#000000;stroke-width:1.0;stroke-dasharray:2.0,2.0;" x1="10" x2="1552.5352" y1="308.6582" y2="308.6582"/><text fill="#000000" font-family="sans-serif" font-size="11" font-weight="bold" lengthAdjust="spacing" textLength="101.6426" x="15" y="320.5283">[User doesn't exist]</text><polygon fill="#181818" points="505.0977,343.5801,495.0977,347.5801,505.0977,351.5801,501.0977,347.5801" style="stroke:#181818;stroke-width:1.0;"/><line style="stroke:#181818;stroke-width:1.0;stroke-dasharray:2.0,2.0;" x1="499.0977" x2="1421.0767" y1="347.5801" y2="347.5801"/><text fill="#000000" font-family="sans-serif" font-size="13" lengthAdjust="spacing" textLength="100.7563" x="511.0977" y="342.3174">user doesn't exist</text><polygon fill="#181818" points="687.4248,374.8711,697.4248,378.8711,687.4248,382.8711,691.4248,378.8711" style="stroke:#181818;stroke-width:1.0;"/><line style="stroke:#181818;stroke-width:1.0;" x1="494.0977" x2="693.4248" y1="378.8711" y2="378.8711"/><text fill="#000000" font-family="sans-serif" font-size="13" font-weight="bold" lengthAdjust="spacing" textLength="59.9409" x="501.0977" y="373.6084">toDomain</text><text fill="#000000" font-family="sans-serif" font-size="13" lengthAdjust="spacing" textLength="117.7744" x="564.6504" y="373.6084">(signUpRequestDto)</text><polygon fill="#181818" points="894.9355,406.1621,904.9355,410.1621,894.9355,414.1621,898.9355,410.1621" style="stroke:#181818;stroke-width:1.0;"/><line style="stroke:#181818;stroke-width:1.0;" x1="699.4248" x2="900.9355" y1="410.1621" y2="410.1621"/><text fill="#000000" font-family="sans-serif" font-size="13" font-weight="bold" lengthAdjust="spacing" textLength="25.2827" x="706.4248" y="404.8994">new</text><line style="stroke:#181818;stroke-width:1.0;" x1="906.9355" x2="948.9355" y1="441.4531" y2="441.4531"/><line style="stroke:#181818;stroke-width:1.0;" x1="948.9355" x2="948.9355" y1="441.4531" y2="454.4531"/><line style="stroke:#181818;stroke-width:1.0;" x1="907.9355" x2="948.9355" y1="454.4531" y2="454.4531"/><polygon fill="#181818" points="917.9355,450.4531,907.9355,454.4531,917.9355,458.4531,913.9355,454.4531" style="stroke:#181818;stroke-width:1.0;"/><text fill="#000000" font-family="sans-serif" font-size="13" font-weight="bold" lengthAdjust="spacing" textLength="30.3418" x="913.9355" y="436.1904">setId</text><text fill="#000000" font-family="sans-serif" font-size="13" lengthAdjust="spacing" textLength="84.5127" x="947.8892" y="436.1904">(randomUUID)</text><line style="stroke:#181818;stroke-width:1.0;" x1="906.9355" x2="948.9355" y1="485.7441" y2="485.7441"/><line style="stroke:#181818;stroke-width:1.0;" x1="948.9355" x2="948.9355" y1="485.7441" y2="498.7441"/><line style="stroke:#181818;stroke-width:1.0;" x1="907.9355" x2="948.9355" y1="498.7441" y2="498.7441"/><polygon fill="#181818" points="917.9355,494.7441,907.9355,498.7441,917.9355,502.7441,913.9355,498.7441" style="stroke:#181818;stroke-width:1.0;"/><text fill="#000000" font-family="sans-serif" font-size="13" font-weight="bold" lengthAdjust="spacing" textLength="67.1963" x="913.9355" y="480.4814">setCreated</text><text fill="#000000" font-family="sans-serif" font-size="13" lengthAdjust="spacing" textLength="32.5063" x="984.7437" y="480.4814">(now)</text><line style="stroke:#181818;stroke-width:1.0;" x1="906.9355" x2="948.9355" y1="530.0352" y2="530.0352"/><line style="stroke:#181818;stroke-width:1.0;" x1="948.9355" x2="948.9355" y1="530.0352" y2="543.0352"/><line style="stroke:#181818;stroke-width:1.0;" x1="907.9355" x2="948.9355" y1="543.0352" y2="543.0352"/><polygon fill="#181818" points="917.9355,539.0352,907.9355,543.0352,917.9355,547.0352,913.9355,543.0352" style="stroke:#181818;stroke-width:1.0;"/><text fill="#000000" font-family="sans-serif" font-size="13" font-weight="bold" lengthAdjust="spacing" textLength="80.8945" x="913.9355" y="524.7725">setLastLogin</text><text fill="#000000" font-family="sans-serif" font-size="13" lengthAdjust="spacing" textLength="28.8945" x="998.4419" y="524.7725">(null)</text><line style="stroke:#181818;stroke-width:1.0;" x1="906.9355" x2="948.9355" y1="574.3262" y2="574.3262"/><line style="stroke:#181818;stroke-width:1.0;" x1="948.9355" x2="948.9355" y1="574.3262" y2="587.3262"/><line style="stroke:#181818;stroke-width:1.0;" x1="907.9355" x2="948.9355" y1="587.3262" y2="587.3262"/><polygon fill="#181818" points="917.9355,583.3262,907.9355,587.3262,917.9355,591.3262,913.9355,587.3262" style="stroke:#181818;stroke-width:1.0;"/><text fill="#000000" font-family="sans-serif" font-size="13" font-weight="bold" lengthAdjust="spacing" textLength="68.6499" x="913.9355" y="569.0635">setIsActive</text><text fill="#000000" font-family="sans-serif" font-size="13" lengthAdjust="spacing" textLength="31.0591" x="986.1973" y="569.0635">(true)</text><polygon fill="#181818" points="894.9355,614.6172,904.9355,618.6172,894.9355,622.6172,898.9355,618.6172" style="stroke:#181818;stroke-width:1.0;"/><line style="stroke:#181818;stroke-width:1.0;" x1="699.4248" x2="900.9355" y1="618.6172" y2="618.6172"/><text fill="#000000" font-family="sans-serif" font-size="13" font-weight="bold" lengthAdjust="spacing" textLength="54.1963" x="706.4248" y="613.3545">setName</text><text fill="#000000" font-family="sans-serif" font-size="13" lengthAdjust="spacing" textLength="41.1772" x="764.2329" y="613.3545">(name)</text><polygon fill="#181818" points="894.9355,645.9082,904.9355,649.9082,894.9355,653.9082,898.9355,649.9082" style="stroke:#181818;stroke-width:1.0;"/><line style="stroke:#181818;stroke-width:1.0;" x1="699.4248" x2="900.9355" y1="649.9082" y2="649.9082"/><text fill="#000000" font-family="sans-serif" font-size="13" font-weight="bold" lengthAdjust="spacing" textLength="53.4727" x="706.4248" y="644.6455">setEmail</text><text fill="#000000" font-family="sans-serif" font-size="13" lengthAdjust="spacing" textLength="39.7236" x="763.5093" y="644.6455">(email)</text><polygon fill="#181818" points="894.9355,677.1992,904.9355,681.1992,894.9355,685.1992,898.9355,681.1992" style="stroke:#181818;stroke-width:1.0;"/><line style="stroke:#181818;stroke-width:1.0;" x1="699.4248" x2="900.9355" y1="681.1992" y2="681.1992"/><text fill="#000000" font-family="sans-serif" font-size="13" font-weight="bold" lengthAdjust="spacing" textLength="65.7427" x="706.4248" y="675.9365">setPhones</text><text fill="#000000" font-family="sans-serif" font-size="13" lengthAdjust="spacing" textLength="51.3081" x="775.7793" y="675.9365">(phones)</text><polygon fill="#181818" points="894.9355,708.4902,904.9355,712.4902,894.9355,716.4902,898.9355,712.4902" style="stroke:#181818;stroke-width:1.0;"/><line style="stroke:#181818;stroke-width:1.0;" x1="699.4248" x2="900.9355" y1="712.4902" y2="712.4902"/><text fill="#000000" font-family="sans-serif" font-size="13" font-weight="bold" lengthAdjust="spacing" textLength="115.6035" x="706.4248" y="707.2275">setCleanPassword</text><text fill="#000000" font-family="sans-serif" font-size="13" lengthAdjust="spacing" textLength="64.2954" x="825.6401" y="707.2275">(password)</text><polygon fill="#181818" points="1126.2881,739.7813,1136.2881,743.7813,1126.2881,747.7813,1130.2881,743.7813" style="stroke:#181818;stroke-width:1.0;"/><line style="stroke:#181818;stroke-width:1.0;" x1="906.9355" x2="1132.2881" y1="743.7813" y2="743.7813"/><text fill="#000000" font-family="sans-serif" font-size="13" font-weight="bold" lengthAdjust="spacing" textLength="106.9263" x="913.9355" y="738.5186">encodePassword</text><text fill="#000000" font-family="sans-serif" font-size="13" lengthAdjust="spacing" textLength="96.8145" x="1024.4736" y="738.5186">(cleanPassword)</text><polygon fill="#181818" points="917.9355,771.0723,907.9355,775.0723,917.9355,779.0723,913.9355,775.0723" style="stroke:#181818;stroke-width:1.0;"/><line style="stroke:#181818;stroke-width:1.0;stroke-dasharray:2.0,2.0;" x1="911.9355" x2="1137.2881" y1="775.0723" y2="775.0723"/><text fill="#000000" font-family="sans-serif" font-size="13" lengthAdjust="spacing" textLength="106.958" x="923.9355" y="769.8096">encodedPassword</text><line style="stroke:#181818;stroke-width:1.0;" x1="906.9355" x2="948.9355" y1="806.3633" y2="806.3633"/><line style="stroke:#181818;stroke-width:1.0;" x1="948.9355" x2="948.9355" y1="806.3633" y2="819.3633"/><line style="stroke:#181818;stroke-width:1.0;" x1="907.9355" x2="948.9355" y1="819.3633" y2="819.3633"/><polygon fill="#181818" points="917.9355,815.3633,907.9355,819.3633,917.9355,823.3633,913.9355,819.3633" style="stroke:#181818;stroke-width:1.0;"/><text fill="#000000" font-family="sans-serif" font-size="13" font-weight="bold" lengthAdjust="spacing" textLength="80.2026" x="913.9355" y="801.1006">setPassword</text><text fill="#000000" font-family="sans-serif" font-size="13" lengthAdjust="spacing" textLength="115.6162" x="997.75" y="801.1006">(encodedPassword)</text><polygon fill="#181818" points="505.0977,846.6543,495.0977,850.6543,505.0977,854.6543,501.0977,850.6543" style="stroke:#181818;stroke-width:1.0;"/><line style="stroke:#181818;stroke-width:1.0;stroke-dasharray:2.0,2.0;" x1="499.0977" x2="698.4248" y1="850.6543" y2="850.6543"/><text fill="#000000" font-family="sans-serif" font-size="13" lengthAdjust="spacing" textLength="107.6563" x="511.0977" y="845.3916">userDomainObject</text><polygon fill="#181818" points="1410.0767,877.9453,1420.0767,881.9453,1410.0767,885.9453,1414.0767,881.9453" style="stroke:#181818;stroke-width:1.0;"/><line style="stroke:#181818;stroke-width:1.0;" x1="494.0977" x2="1416.0767" y1="881.9453" y2="881.9453"/><text fill="#000000" font-family="sans-serif" font-size="13" font-weight="bold" lengthAdjust="spacing" textLength="28.9199" x="501.0977" y="876.6826">save</text><text fill="#000000" font-family="sans-serif" font-size="13" lengthAdjust="spacing" textLength="116.3145" x="533.6294" y="876.6826">(userDomainObject)</text><polygon fill="#181818" points="505.0977,909.2363,495.0977,913.2363,505.0977,917.2363,501.0977,913.2363" style="stroke:#181818;stroke-width:1.0;"/><line style="stroke:#181818;stroke-width:1.0;stroke-dasharray:2.0,2.0;" x1="499.0977" x2="1421.0767" y1="913.2363" y2="913.2363"/><text fill="#000000" font-family="sans-serif" font-size="13" lengthAdjust="spacing" textLength="62.1372" x="511.0977" y="907.9736">savedUser</text><polygon fill="#181818" points="687.4248,940.5273,697.4248,944.5273,687.4248,948.5273,691.4248,944.5273" style="stroke:#181818;stroke-width:1.0;"/><line style="stroke:#181818;stroke-width:1.0;" x1="494.0977" x2="693.4248" y1="944.5273" y2="944.5273"/><text fill="#000000" font-family="sans-serif" font-size="13" font-weight="bold" lengthAdjust="spacing" textLength="33.9282" x="501.0977" y="939.2646">toDto</text><text fill="#000000" font-family="sans-serif" font-size="13" lengthAdjust="spacing" textLength="70.7954" x="538.6377" y="939.2646">(savedUser)</text><polygon fill="#181818" points="1502.9248,971.8184,1512.9248,975.8184,1502.9248,979.8184,1506.9248,975.8184" style="stroke:#181818;stroke-width:1.0;"/><line style="stroke:#181818;stroke-width:1.0;" x1="699.4248" x2="1508.9248" y1="975.8184" y2="975.8184"/><text fill="#000000" font-family="sans-serif" font-size="13" font-weight="bold" lengthAdjust="spacing" textLength="92.4727" x="706.4248" y="970.5557">generateToken</text><text fill="#000000" font-family="sans-serif" font-size="13" lengthAdjust="spacing" textLength="39.7236" x="802.5093" y="970.5557">(email)</text><polygon fill="#181818" points="710.4248,1003.1094,700.4248,1007.1094,710.4248,1011.1094,706.4248,1007.1094" style="stroke:#181818;stroke-width:1.0;"/><line style="stroke:#181818;stroke-width:1.0;stroke-dasharray:2.0,2.0;" x1="704.4248" x2="1513.9248" y1="1007.1094" y2="1007.1094"/><text fill="#000000" font-family="sans-serif" font-size="13" lengthAdjust="spacing" textLength="31.8018" x="716.4248" y="1001.8467">token</text><polygon fill="#181818" points="1272.4668,1034.4004,1282.4668,1038.4004,1272.4668,1042.4004,1276.4668,1038.4004" style="stroke:#181818;stroke-width:1.0;"/><line style="stroke:#181818;stroke-width:1.0;" x1="699.4248" x2="1278.4668" y1="1038.4004" y2="1038.4004"/><text fill="#000000" font-family="sans-serif" font-size="13" font-weight="bold" lengthAdjust="spacing" textLength="25.2827" x="706.4248" y="1033.1377">new</text><polygon fill="#181818" points="1272.4668,1065.6914,1282.4668,1069.6914,1272.4668,1073.6914,1276.4668,1069.6914" style="stroke:#181818;stroke-width:1.0;"/><line style="stroke:#181818;stroke-width:1.0;" x1="699.4248" x2="1278.4668" y1="1069.6914" y2="1069.6914"/><text fill="#000000" font-family="sans-serif" font-size="13" font-weight="bold" lengthAdjust="spacing" textLength="57.0718" x="706.4248" y="1064.4287">setToken</text><text fill="#000000" font-family="sans-serif" font-size="13" lengthAdjust="spacing" textLength="40.46" x="767.1084" y="1064.4287">(token)</text><polygon fill="#181818" points="1272.4668,1096.9824,1282.4668,1100.9824,1272.4668,1104.9824,1276.4668,1100.9824" style="stroke:#181818;stroke-width:1.0;"/><line style="stroke:#181818;stroke-width:1.0;" x1="699.4248" x2="1278.4668" y1="1100.9824" y2="1100.9824"/><text fill="#000000" font-family="sans-serif" font-size="13" font-weight="bold" lengthAdjust="spacing" textLength="30.3418" x="706.4248" y="1095.7197">setId</text><text fill="#000000" font-family="sans-serif" font-size="13" lengthAdjust="spacing" textLength="18.7764" x="740.3784" y="1095.7197">(id)</text><polygon fill="#181818" points="1272.4668,1128.2734,1282.4668,1132.2734,1272.4668,1136.2734,1276.4668,1132.2734" style="stroke:#181818;stroke-width:1.0;"/><line style="stroke:#181818;stroke-width:1.0;" x1="699.4248" x2="1278.4668" y1="1132.2734" y2="1132.2734"/><text fill="#000000" font-family="sans-serif" font-size="13" font-weight="bold" lengthAdjust="spacing" textLength="67.1963" x="706.4248" y="1127.0107">setCreated</text><text fill="#000000" font-family="sans-serif" font-size="13" lengthAdjust="spacing" textLength="52.019" x="777.2329" y="1127.0107">(created)</text><polygon fill="#181818" points="1272.4668,1159.5645,1282.4668,1163.5645,1272.4668,1167.5645,1276.4668,1163.5645" style="stroke:#181818;stroke-width:1.0;"/><line style="stroke:#181818;stroke-width:1.0;" x1="699.4248" x2="1278.4668" y1="1163.5645" y2="1163.5645"/><text fill="#000000" font-family="sans-serif" font-size="13" font-weight="bold" lengthAdjust="spacing" textLength="80.8945" x="706.4248" y="1158.3018">setLastLogin</text><text fill="#000000" font-family="sans-serif" font-size="13" lengthAdjust="spacing" textLength="60.6963" x="790.9312" y="1158.3018">(lastLogin)</text><polygon fill="#181818" points="1272.4668,1190.8555,1282.4668,1194.8555,1272.4668,1198.8555,1276.4668,1194.8555" style="stroke:#181818;stroke-width:1.0;"/><line style="stroke:#181818;stroke-width:1.0;" x1="699.4248" x2="1278.4668" y1="1194.8555" y2="1194.8555"/><text fill="#000000" font-family="sans-serif" font-size="13" font-weight="bold" lengthAdjust="spacing" textLength="68.6499" x="706.4248" y="1189.5928">setIsActive</text><text fill="#000000" font-family="sans-serif" font-size="13" lengthAdjust="spacing" textLength="53.4473" x="778.6865" y="1189.5928">(isActive)</text><polygon fill="#181818" points="505.0977,1222.1465,495.0977,1226.1465,505.0977,1230.1465,501.0977,1226.1465" style="stroke:#181818;stroke-width:1.0;"/><line style="stroke:#181818;stroke-width:1.0;stroke-dasharray:2.0,2.0;" x1="499.0977" x2="698.4248" y1="1226.1465" y2="1226.1465"/><text fill="#000000" font-family="sans-serif" font-size="13" lengthAdjust="spacing" textLength="119.2344" x="511.0977" y="1220.8838">signUpResponseDto</text><polygon fill="#181818" points="238.2183,1253.4375,228.2183,1257.4375,238.2183,1261.4375,234.2183,1257.4375" style="stroke:#181818;stroke-width:1.0;"/><line style="stroke:#181818;stroke-width:1.0;stroke-dasharray:2.0,2.0;" x1="232.2183" x2="493.0977" y1="1257.4375" y2="1257.4375"/><text fill="#000000" font-family="sans-serif" font-size="13" lengthAdjust="spacing" textLength="119.2344" x="244.2183" y="1252.1748">signUpResponseDto</text><polygon fill="#181818" points="48.7793,1284.7285,38.7793,1288.7285,48.7793,1292.7285,44.7793,1288.7285" style="stroke:#181818;stroke-width:1.0;"/><line style="stroke:#181818;stroke-width:1.0;stroke-dasharray:2.0,2.0;" x1="42.7793" x2="226.2183" y1="1288.7285" y2="1288.7285"/><text fill="#000000" font-family="sans-serif" font-size="13" lengthAdjust="spacing" textLength="119.2344" x="54.7793" y="1283.4658">signUpResponseDto</text><!--SRC=[bPNDRkCW4CVlVWfkMrlg2_HGAKfwoAgxhThr0r0pIjabuCAusRvz-R0Zm6vgSWa9y_ip3FD1ErIQj0PqrLEDlECzbKWs0xvkbKIjXBYujM7ll8EPmJFesV_F_23R_XVj-qpHdRvJHyhbmyjVw33PVAJ6d9HcTx9JB0E3uXEONaa3ErGpsIVebU7sYX_9riyJjiX5LJaRSdsRNUg6D8tnsar3hinuoji01kqXTPLQJ_nuvpNmQEh8r4i7mtzkq3WOR4n4NLLKXDkGi5KH-qavSfqxCJXxAZHGzX5poV6pcuVdl4pdrbx6kND3DE2W9G6jbQv060XkCmL6_i0WjDxxEPR5Biue5pbK8OsM0-y4OcAAVfnwJaN2gMdENiQxNn46SC_SePfAfevjkz_LfG9R6si4hoBLgHY_fmRlrI7SNGv252lipQP3_WvE0FK0wmDcuT_qw45flul0EvVYKQuNe8-lIeAlazwlYk2j02gdtk8rnlNNSSiwaIzLlunbkbWtQ6NSkLnIhu8KcunBNo_s8PDQYijIlIKjUA7QvftAq90kELslgd57CpzvrfKsAb_N4xNyt6DdTyW196XRKt_KFv1PYerctgdqA7JMYzApQPCsYrNczgNExlYJwY8sT1dEogYejNHXMSOdlKLCFmezZxeB7zTh4jFCHlptG-mI5O_jyzYQcuDaTlnXzGa0]--></g></svg>