<svg xmlns="http://www.w3.org/2000/svg" xmlns:xlink="http://www.w3.org/1999/xlink" contentStyleType="text/css" height="424px" preserveAspectRatio="none" style="width:828px;height:424px;background:#FFFFFF;" version="1.1" viewBox="0 0 828 424" width="828px" zoomAndPan="magnify"><defs/><g><!--cluster Domain--><g id="cluster_Domain"><path d="M316.5,302.0137 L368.8379,302.0137 A3.75,3.75 0 0 1 371.3379,304.5137 L378.3379,326.6348 L670.5,326.6348 A2.5,2.5 0 0 1 673,329.1348 L673,414.5137 A2.5,2.5 0 0 1 670.5,417.0137 L316.5,417.0137 A2.5,2.5 0 0 1 314,414.5137 L314,304.5137 A2.5,2.5 0 0 1 316.5,302.0137 " fill="none" style="stroke:#000000;stroke-width:1.5;"/><line style="stroke:#000000;stroke-width:1.5;" x1="314" x2="378.3379" y1="326.6348" y2="326.6348"/><text fill="#000000" font-family="sans-serif" font-size="14" font-weight="bold" lengthAdjust="spacing" textLength="51.3379" x="318" y="319.1211">Domain</text></g><!--cluster Application--><g id="cluster_Application"><path d="M314.5,176.0137 L391.7207,176.0137 A3.75,3.75 0 0 1 394.2207,178.5137 L401.2207,200.6348 L573.5,200.6348 A2.5,2.5 0 0 1 576,203.1348 L576,275.5137 A2.5,2.5 0 0 1 573.5,278.0137 L314.5,278.0137 A2.5,2.5 0 0 1 312,275.5137 L312,178.5137 A2.5,2.5 0 0 1 314.5,176.0137 " fill="none" style="stroke:#000000;stroke-width:1.5;"/><line style="stroke:#000000;stroke-width:1.5;" x1="312" x2="401.2207" y1="200.6348" y2="200.6348"/><text fill="#000000" font-family="sans-serif" font-size="14" font-weight="bold" lengthAdjust="spacing" textLength="76.2207" x="316" y="193.1211">Application</text></g><!--cluster Infrastructure--><g id="cluster_Infrastructure"><path d="M8.5,6.0137 L100.5205,6.0137 A3.75,3.75 0 0 1 103.0205,8.5137 L110.0205,30.6348 L818.5,30.6348 A2.5,2.5 0 0 1 821,33.1348 L821,105.5137 A2.5,2.5 0 0 1 818.5,108.0137 L8.5,108.0137 A2.5,2.5 0 0 1 6,105.5137 L6,8.5137 A2.5,2.5 0 0 1 8.5,6.0137 " fill="none" style="stroke:#000000;stroke-width:1.5;"/><line style="stroke:#000000;stroke-width:1.5;" x1="6" x2="110.0205" y1="30.6348" y2="30.6348"/><text fill="#000000" font-family="sans-serif" font-size="14" font-weight="bold" lengthAdjust="spacing" textLength="91.0205" x="10" y="23.1211">Infrastructure</text></g><!--entity UserRepositoryPort--><g id="elem_UserRepositoryPort"><ellipse cx="399" cy="370.0137" fill="#F1F1F1" rx="8" ry="8" style="stroke:#181818;stroke-width:0.5;"/><text fill="#000000" font-family="sans-serif" font-size="14" lengthAdjust="spacing" textLength="122.1514" x="337.9243" y="402.1211">UserRepositoryPort</text></g><!--entity PasswordEncoderPort--><g id="elem_PasswordEncoderPort"><ellipse cx="580" cy="370.0137" fill="#F1F1F1" rx="8" ry="8" style="stroke:#181818;stroke-width:0.5;"/><text fill="#000000" font-family="sans-serif" font-size="14" lengthAdjust="spacing" textLength="139.2891" x="510.3555" y="402.1211">PasswordEncoderPort</text></g><!--entity AuthService--><g id="elem_AuthService"><rect fill="#F1F1F1" height="48.6211" rx="2.5" ry="2.5" style="stroke:#181818;stroke-width:0.5;" width="115.4824" x="444.5" y="213.0137"/><rect fill="#F1F1F1" height="10" style="stroke:#181818;stroke-width:0.5;" width="15" x="539.9824" y="218.0137"/><rect fill="#F1F1F1" height="2" style="stroke:#181818;stroke-width:0.5;" width="4" x="537.9824" y="220.0137"/><rect fill="#F1F1F1" height="2" style="stroke:#181818;stroke-width:0.5;" width="4" x="537.9824" y="224.0137"/><text fill="#000000" font-family="sans-serif" font-size="14" lengthAdjust="spacing" textLength="75.4824" x="459.5" y="248.1211">AuthService</text></g><!--entity JwtUtil--><g id="elem_JwtUtil"><rect fill="#F1F1F1" height="48.6211" rx="2.5" ry="2.5" style="stroke:#181818;stroke-width:0.5;" width="81.2207" x="328.5" y="213.0137"/><rect fill="#F1F1F1" height="10" style="stroke:#181818;stroke-width:0.5;" width="15" x="389.7207" y="218.0137"/><rect fill="#F1F1F1" height="2" style="stroke:#181818;stroke-width:0.5;" width="4" x="387.7207" y="220.0137"/><rect fill="#F1F1F1" height="2" style="stroke:#181818;stroke-width:0.5;" width="4" x="387.7207" y="224.0137"/><text fill="#000000" font-family="sans-serif" font-size="14" lengthAdjust="spacing" textLength="41.2207" x="343.5" y="248.1211">JwtUtil</text></g><!--entity AuthController--><g id="elem_AuthController"><rect fill="#F1F1F1" height="48.6211" rx="2.5" ry="2.5" style="stroke:#181818;stroke-width:0.5;" width="129.4893" x="437.5" y="43.0137"/><rect fill="#F1F1F1" height="10" style="stroke:#181818;stroke-width:0.5;" width="15" x="546.9893" y="48.0137"/><rect fill="#F1F1F1" height="2" style="stroke:#181818;stroke-width:0.5;" width="4" x="544.9893" y="50.0137"/><rect fill="#F1F1F1" height="2" style="stroke:#181818;stroke-width:0.5;" width="4" x="544.9893" y="54.0137"/><text fill="#000000" font-family="sans-serif" font-size="14" lengthAdjust="spacing" textLength="89.4893" x="452.5" y="78.1211">AuthController</text></g><!--entity UserRepositoryAdapter--><g id="elem_UserRepositoryAdapter"><rect fill="#F1F1F1" height="48.6211" rx="2.5" ry="2.5" style="stroke:#181818;stroke-width:0.5;" width="185.5098" x="22" y="43.0137"/><rect fill="#F1F1F1" height="10" style="stroke:#181818;stroke-width:0.5;" width="15" x="187.5098" y="48.0137"/><rect fill="#F1F1F1" height="2" style="stroke:#181818;stroke-width:0.5;" width="4" x="185.5098" y="50.0137"/><rect fill="#F1F1F1" height="2" style="stroke:#181818;stroke-width:0.5;" width="4" x="185.5098" y="54.0137"/><text fill="#000000" font-family="sans-serif" font-size="14" lengthAdjust="spacing" textLength="145.5098" x="37" y="78.1211">UserRepositoryAdapter</text></g><!--entity JpaUserRepository--><g id="elem_JpaUserRepository"><rect fill="#F1F1F1" height="48.6211" rx="2.5" ry="2.5" style="stroke:#181818;stroke-width:0.5;" width="159.0479" x="243.5" y="43.0137"/><rect fill="#F1F1F1" height="10" style="stroke:#181818;stroke-width:0.5;" width="15" x="382.5479" y="48.0137"/><rect fill="#F1F1F1" height="2" style="stroke:#181818;stroke-width:0.5;" width="4" x="380.5479" y="50.0137"/><rect fill="#F1F1F1" height="2" style="stroke:#181818;stroke-width:0.5;" width="4" x="380.5479" y="54.0137"/><text fill="#000000" font-family="sans-serif" font-size="14" lengthAdjust="spacing" textLength="119.0479" x="258.5" y="78.1211">JpaUserRepository</text></g><!--entity PasswordEncoderAdapter--><g id="elem_PasswordEncoderAdapter"><rect fill="#F1F1F1" height="48.6211" rx="2.5" ry="2.5" style="stroke:#181818;stroke-width:0.5;" width="202.6475" x="601.5" y="43.0137"/><rect fill="#F1F1F1" height="10" style="stroke:#181818;stroke-width:0.5;" width="15" x="784.1475" y="48.0137"/><rect fill="#F1F1F1" height="2" style="stroke:#181818;stroke-width:0.5;" width="4" x="782.1475" y="50.0137"/><rect fill="#F1F1F1" height="2" style="stroke:#181818;stroke-width:0.5;" width="4" x="782.1475" y="54.0137"/><text fill="#000000" font-family="sans-serif" font-size="14" lengthAdjust="spacing" textLength="162.6475" x="616.5" y="78.1211">PasswordEncoderAdapter</text></g><!--reverse link JwtUtil to AuthService--><g id="link_JwtUtil_AuthService"><path d="M415.52,237.5137 C427.08,237.5137 432.64,237.5137 444.2,237.5137 " fill="none" id="JwtUtil-backto-AuthService" style="stroke:#181818;stroke-width:1.0;"/><polygon fill="#181818" points="409.52,237.5137,418.52,241.5137,414.52,237.5137,418.52,233.5137,409.52,237.5137" style="stroke:#181818;stroke-width:1.0;"/></g><!--link AuthService to PasswordEncoderPort--><g id="link_AuthService_PasswordEncoderPort"><path d="M516.13,262.1437 C533.95,291.9637 560.5921,336.5433 572.1321,355.8533 " fill="none" id="AuthService-to-PasswordEncoderPort" style="stroke:#181818;stroke-width:1.0;"/><polygon fill="#181818" points="575.21,361.0037,574.0267,351.2262,572.645,356.7117,567.1595,355.3301,575.21,361.0037" style="stroke:#181818;stroke-width:1.0;"/></g><!--link AuthService to UserRepositoryPort--><g id="link_AuthService_UserRepositoryPort"><path d="M483.35,262.1437 C459.81,291.9637 424.2772,336.9838 409.0372,356.2938 " fill="none" id="AuthService-to-UserRepositoryPort" style="stroke:#181818;stroke-width:1.0;"/><polygon fill="#181818" points="405.32,361.0037,414.0356,356.417,408.4176,357.0788,407.7558,351.4608,405.32,361.0037" style="stroke:#181818;stroke-width:1.0;"/></g><!--link AuthController to AuthService--><g id="link_AuthController_AuthService"><path d="M502,92.2237 C502,124.2437 502,180.9637 502,212.9237 " fill="none" id="AuthController-AuthService" style="stroke:#181818;stroke-width:1.0;"/><path d="M509.0711,145.5251 A10,10 0 0 0 494.9289 145.5251" fill="none" style="stroke:#181818;stroke-width:1.5;"/><ellipse cx="502" cy="152.5962" fill="#FFFFFF" rx="6" ry="6" style="stroke:#181818;stroke-width:1.5;"/></g><!--link UserRepositoryAdapter to UserRepositoryPort--><g id="link_UserRepositoryAdapter_UserRepositoryPort"><path d="M135.45,92.2037 C170.64,132.7237 245.33,217.5937 312,286.0137 C339.68,314.4237 360.9184,334.2346 376.8684,348.8246 " fill="none" id="UserRepositoryAdapter-to-UserRepositoryPort" style="stroke:#181818;stroke-width:1.0;"/><polygon fill="none" points="390.15,360.9737,380.9181,344.3974,372.8187,353.2518,390.15,360.9737" style="stroke:#181818;stroke-width:1.0;"/></g><!--link PasswordEncoderAdapter to PasswordEncoderPort--><g id="link_PasswordEncoderAdapter_PasswordEncoderPort"><path d="M693.35,92.0937 C667.81,154.4937 606.1252,305.1638 590.1752,344.1538 " fill="none" id="PasswordEncoderAdapter-to-PasswordEncoderPort" style="stroke:#181818;stroke-width:1.0;"/><polygon fill="none" points="583.36,360.8137,595.7285,346.4255,584.6219,341.882,583.36,360.8137" style="stroke:#181818;stroke-width:1.0;"/></g><!--link UserRepositoryAdapter to JpaUserRepository--><g id="link_UserRepositoryAdapter_JpaUserRepository"><path d="M208.03,67.5137 C219.71,67.5137 231.38,67.5137 243.06,67.5137 " fill="none" id="UserRepositoryAdapter-JpaUserRepository" style="stroke:#181818;stroke-width:1.0;"/><path d="M218.4739,60.4426 A10,10 0 0 0 218.4739 74.5847" fill="none" style="stroke:#181818;stroke-width:1.5;"/><ellipse cx="225.545" cy="67.5137" fill="#FFFFFF" rx="6" ry="6" style="stroke:#181818;stroke-width:1.5;"/></g><!--SRC=[TP2zRiCm38HtFuMGBOE1Fa418yrGJqO3Ju47GgPJeQeeK7ICeicxrqaSe_AFHXxlzF4yw2yueTgyqJSOjr6_YUgVSOBSW4PL1kGFz1IC4FyKn39PA224ZhZUEqqrydtZcYJ-6PnvRuq6CJIc7xDMFW_8PwEnUapoJaenjegixwvX2CAjbfOnSk_82PEro4D0p9dLu6NKSW-nFCmdwAEfPuWGLMgnaVJr7-P4lsaBHIpkpHkjPl-bhN_PflDJLyxi3PULvBKZ1yiozBomHmLtffMc_m00]--></g></svg>